<svg xmlns="http://www.w3.org/2000/svg" version="1.1" xmlns:xlink="http://www.w3.org/1999/xlink" xmlns:svgjs="http://svgjs.dev/svgjs" width="1000" height="623" viewBox="0 0 1000 623"><g transform="matrix(1,0,0,1,-0.6060606060606233,0.2522267206477409)"><svg viewBox="0 0 396 247" data-background-color="#ffffff" preserveAspectRatio="xMidYMid meet" height="623" width="1000" xmlns="http://www.w3.org/2000/svg" xmlns:xlink="http://www.w3.org/1999/xlink"><g id="tight-bounds" transform="matrix(1,0,0,1,0.2400000000000091,-0.09999999999999432)"><svg viewBox="0 0 395.52 247.2" height="247.2" width="395.52"><g><svg></svg></g><g><svg viewBox="0 0 395.52 247.2" height="247.2" width="395.52"><g><g><path xmlns="http://www.w3.org/2000/svg" d="M188.054 21.985l4.973 63.635-34.734 0c-0.159-6.483-0.238-12.401-0.238-17.754v-10.588l-7.2 28.342-28.639 0 15.251-63.635zM203.936 225.215h-37.94l-3.963-63.635 36.93 0zM120.997 203.157h-36.764l-11.21-41.577h29.628l0.699 2.754 0.661-2.754h27.548zM44.822 56.984c0.377 12.448 0.573 21.994 0.588 28.636l-33.299 0 5.065-63.635h49.999l16.172 63.635-30.804 0zM38.646 225.215h-37.646l5.065-63.635h36.377zM349.815 225.215l-35.149-63.635 41.588 0 38.266 63.635zM280.111 225.215h-38.823l0-63.635h38.823zM241.288 21.985h60.587c53.724 0 80.586 19.901 80.586 59.704 0 1.333-0.032 2.643-0.097 3.931h-40.612c0.081-1.268 0.122-2.578 0.122-3.931 0-10.98-3.274-18.98-9.823-23.999-6.588-4.98-16.941-7.47-31.058-7.471h-20.882v35.401l-38.823 0z" fill="#c56e33" fill-rule="nonzero" stroke="none" stroke-width="1" stroke-linecap="butt" stroke-linejoin="miter" stroke-miterlimit="10" stroke-dasharray="" stroke-dashoffset="0" font-family="none" font-weight="none" font-size="none" text-anchor="none" style="mix-blend-mode: normal" data-fill-palette-color="tertiary"></path></g></g><g transform="matrix(1,0,0,1,0,94.20030757964115)"><svg viewBox="0 0 395.52 58.799384840717686" height="58.799384840717686" width="395.52"><g><svg viewBox="0 0 395.52 58.799384840717686" height="58.799384840717686" width="395.52"><g><svg viewBox="0 0 395.52 58.799384840717686" height="58.799384840717686" width="395.52"><g><svg viewBox="0 0 395.52 58.799384840717686" height="58.799384840717686" width="395.52"><g id="textblocktransform"><svg viewBox="0 0 395.52 58.799384840717686" height="58.799384840717686" width="395.52" id="textblock"><g><svg viewBox="0 0 395.52 58.799384840717686" height="58.799384840717686" width="395.52"><g transform="matrix(1,0,0,1,0,0)"><svg width="395.52" viewBox="2.299999952316284 -39.849998474121094 273.08001708984375 40.599998474121094" height="58.799384840717686" data-palette-color="#c56e33"><path d="M34.1-34.55L36.8 0 30.35 0 29.45-14.45Q29-22.2 29-26.75L29-26.75 29-28.55 22.7-3.75 16.45-3.75 9.75-28.6Q9.85-25.3 9.85-23.6L9.85-23.6Q9.85-19.05 9.55-14.25L9.55-14.25 8.7 0 2.3 0 5.05-34.55 13.55-34.55 19.7-10.35 25.5-34.55 34.1-34.55ZM53.75-27.2Q59.6-27.2 62.87-23.48 66.15-19.75 66.15-13.25L66.15-13.25Q66.15-9.1 64.65-5.93 63.15-2.75 60.35-1 57.55 0.75 53.7 0.75L53.7 0.75Q47.85 0.75 44.55-2.98 41.25-6.7 41.25-13.25L41.25-13.25Q41.25-17.4 42.75-20.55 44.25-23.7 47.07-25.45 49.9-27.2 53.75-27.2L53.75-27.2ZM53.75-22.35Q48-22.35 48-13.25L48-13.25Q48-8.55 49.42-6.33 50.85-4.1 53.7-4.1L53.7-4.1Q56.55-4.1 57.97-6.35 59.4-8.6 59.4-13.25L59.4-13.25Q59.4-17.9 57.97-20.13 56.55-22.35 53.75-22.35L53.75-22.35ZM86.8-26.45L93.4-26.45 84.8 0 77.15 0 68.4-26.45 75.35-26.45 81-5.15 86.8-26.45ZM97.34-26.45L103.74-26.45 103.74 0 97.34 0 97.34-26.45ZM100.49-39.85Q102.29-39.85 103.42-38.73 104.54-37.6 104.54-35.95L104.54-35.95Q104.54-34.3 103.42-33.2 102.29-32.1 100.49-32.1L100.49-32.1Q98.74-32.1 97.62-33.2 96.49-34.3 96.49-35.95L96.49-35.95Q96.49-37.6 97.62-38.73 98.74-39.85 100.49-39.85L100.49-39.85ZM133.14-13.85Q133.14-13.35 132.99-11.25L132.99-11.25 116.39-11.25Q116.69-7.4 118.39-5.75 120.09-4.1 122.89-4.1L122.89-4.1Q124.64-4.1 126.19-4.67 127.74-5.25 129.49-6.45L129.49-6.45 132.14-2.8Q127.74 0.75 122.34 0.75L122.34 0.75Q116.29 0.75 113.02-2.95 109.74-6.65 109.74-13.05L109.74-13.05Q109.74-17.1 111.14-20.33 112.54-23.55 115.19-25.38 117.84-27.2 121.49-27.2L121.49-27.2Q127.04-27.2 130.09-23.68 133.14-20.15 133.14-13.85L133.14-13.85ZM126.79-15.4L126.79-15.7Q126.79-22.65 121.64-22.65L121.64-22.65Q119.29-22.65 117.97-20.93 116.64-19.2 116.39-15.4L116.39-15.4 126.79-15.4ZM170.04 0L162.39-13.85 158.19-13.85 158.19 0 151.59 0 151.59-34.55 161.89-34.55Q175.59-34.55 175.59-24.4L175.59-24.4Q175.59-20.95 173.89-18.7 172.19-16.45 168.59-15.05L168.59-15.05 177.64 0 170.04 0ZM158.19-29.75L158.19-18.6 162.29-18.6Q165.44-18.6 167.06-19.98 168.69-21.35 168.69-24.4L168.69-24.4Q168.69-27.2 167.01-28.48 165.34-29.75 161.74-29.75L161.74-29.75 158.19-29.75ZM192.73-27.2Q198.58-27.2 201.86-23.48 205.13-19.75 205.13-13.25L205.13-13.25Q205.13-9.1 203.63-5.93 202.13-2.75 199.33-1 196.53 0.75 192.68 0.75L192.68 0.75Q186.83 0.75 183.53-2.98 180.23-6.7 180.23-13.25L180.23-13.25Q180.23-17.4 181.73-20.55 183.23-23.7 186.06-25.45 188.88-27.2 192.73-27.2L192.73-27.2ZM192.73-22.35Q186.98-22.35 186.98-13.25L186.98-13.25Q186.98-8.55 188.41-6.33 189.83-4.1 192.68-4.1L192.68-4.1Q195.53-4.1 196.96-6.35 198.38-8.6 198.38-13.25L198.38-13.25Q198.38-17.9 196.96-20.13 195.53-22.35 192.73-22.35L192.73-22.35ZM221.93-27.2Q227.78-27.2 231.06-23.48 234.33-19.75 234.33-13.25L234.33-13.25Q234.33-9.1 232.83-5.93 231.33-2.75 228.53-1 225.73 0.75 221.88 0.75L221.88 0.75Q216.03 0.75 212.73-2.98 209.43-6.7 209.43-13.25L209.43-13.25Q209.43-17.4 210.93-20.55 212.43-23.7 215.26-25.45 218.08-27.2 221.93-27.2L221.93-27.2ZM221.93-22.35Q216.18-22.35 216.18-13.25L216.18-13.25Q216.18-8.55 217.61-6.33 219.03-4.1 221.88-4.1L221.88-4.1Q224.73-4.1 226.16-6.35 227.58-8.6 227.58-13.25L227.58-13.25Q227.58-17.9 226.16-20.13 224.73-22.35 221.93-22.35L221.93-22.35ZM268.38-27.2Q271.58-27.2 273.48-25.03 275.38-22.85 275.38-19.15L275.38-19.15 275.38 0 268.98 0 268.98-18.15Q268.98-22.4 266.08-22.4L266.08-22.4Q264.53-22.4 263.4-21.43 262.28-20.45 261.08-18.4L261.08-18.4 261.08 0 254.68 0 254.68-18.15Q254.68-22.4 251.78-22.4L251.78-22.4Q250.18-22.4 249.05-21.43 247.93-20.45 246.73-18.4L246.73-18.4 246.73 0 240.33 0 240.33-26.45 245.88-26.45 246.38-23Q249.38-27.2 254.03-27.2L254.03-27.2Q256.33-27.2 258-26.03 259.68-24.85 260.43-22.75L260.43-22.75Q262.03-24.9 263.95-26.05 265.88-27.2 268.38-27.2L268.38-27.2Z" opacity="1" transform="matrix(1,0,0,1,0,0)" fill="#c56e33" class="undefined-text-0" data-fill-palette-color="primary" id="text-0"></path></svg></g></svg></g></svg></g></svg></g></svg></g></svg></g></svg></g></svg></g><defs></defs></svg><rect width="395.52" height="247.2" fill="none" stroke="none" visibility="hidden"></rect></g></svg></g></svg>